<mxfile host="app.diagrams.net" modified="2022-07-29T13:58:09.687Z" agent="5.0 (Windows NT 10.0; Win64; x64) AppleWebKit/537.36 (KHTML, like Gecko) Chrome/103.0.0.0 Safari/537.36" etag="f-9R6uOGfyQiBLJr_VGx" version="20.2.1" type="github">
  <diagram id="DG-5NgrOxhHIrOLOemOQ" name="Page-1">
    <mxGraphModel dx="1038" dy="579" grid="1" gridSize="10" guides="1" tooltips="1" connect="1" arrows="1" fold="1" page="1" pageScale="1" pageWidth="1400" pageHeight="850" math="0" shadow="0">
      <root>
        <mxCell id="0" />
        <mxCell id="1" parent="0" />
        <mxCell id="VCOzQ0IDnKiIIhDv4Ydc-34" value="" style="rounded=1;whiteSpace=wrap;html=1;dashed=1;fontSize=14;fontColor=#000000;strokeColor=#000000;fillColor=none;dashPattern=1 4;glass=1;sketch=1;perimeterSpacing=1;strokeWidth=2;" parent="1" vertex="1">
          <mxGeometry x="124" y="180" width="270" height="260" as="geometry" />
        </mxCell>
        <mxCell id="VCOzQ0IDnKiIIhDv4Ydc-44" value="" style="rounded=1;whiteSpace=wrap;html=1;dashed=1;fontSize=14;fontColor=#000000;strokeColor=#000000;fillColor=none;dashPattern=1 4;glass=1;sketch=1;perimeterSpacing=1;strokeWidth=2;" parent="1" vertex="1">
          <mxGeometry x="870" y="42" width="500" height="430" as="geometry" />
        </mxCell>
        <mxCell id="VCOzQ0IDnKiIIhDv4Ydc-28" value="" style="rounded=0;whiteSpace=wrap;html=1;fontSize=14;dashed=1;strokeColor=#000000;fillColor=none;" parent="1" vertex="1">
          <mxGeometry x="1000" y="140" width="180" height="270" as="geometry" />
        </mxCell>
        <mxCell id="VCOzQ0IDnKiIIhDv4Ydc-12" value="Payment Table" style="outlineConnect=0;dashed=0;verticalLabelPosition=bottom;verticalAlign=top;align=center;html=1;shape=mxgraph.aws3.oracle_db_instance_2;fillColor=#2E73B8;gradientColor=none;fontSize=14;" parent="1" vertex="1">
          <mxGeometry x="160" y="252" width="60" height="63" as="geometry" />
        </mxCell>
        <mxCell id="VCOzQ0IDnKiIIhDv4Ydc-13" value="" style="rounded=0;whiteSpace=wrap;html=1;fontSize=14;dashed=1;strokeColor=#000000;fillColor=none;" parent="1" vertex="1">
          <mxGeometry x="420" y="190" width="380" height="250" as="geometry" />
        </mxCell>
        <mxCell id="VCOzQ0IDnKiIIhDv4Ydc-4" value="" style="rounded=1;whiteSpace=wrap;html=1;fillColor=#dae8fc;strokeColor=#6c8ebf;" parent="1" vertex="1">
          <mxGeometry x="309" y="500" width="356" height="130" as="geometry" />
        </mxCell>
        <mxCell id="VCOzQ0IDnKiIIhDv4Ydc-1" value="Monitor DashBoard / Power BI" style="rounded=0;whiteSpace=wrap;html=1;fillColor=#fff2cc;strokeColor=#d6b656;" parent="1" vertex="1">
          <mxGeometry x="327" y="550" width="320" height="60" as="geometry" />
        </mxCell>
        <mxCell id="VCOzQ0IDnKiIIhDv4Ydc-2" value="ELK Logs" style="rounded=0;whiteSpace=wrap;html=1;fillColor=#d5e8d4;strokeColor=#82b366;" parent="1" vertex="1">
          <mxGeometry x="695" y="500" width="160" height="60" as="geometry" />
        </mxCell>
        <mxCell id="VCOzQ0IDnKiIIhDv4Ydc-5" value="&lt;b&gt;&lt;font style=&quot;font-size: 14px&quot;&gt;Consumer Layer&lt;/font&gt;&lt;/b&gt;" style="text;html=1;strokeColor=none;fillColor=none;align=center;verticalAlign=middle;whiteSpace=wrap;rounded=0;" parent="1" vertex="1">
          <mxGeometry x="385" y="480" width="160" height="40" as="geometry" />
        </mxCell>
        <mxCell id="VCOzQ0IDnKiIIhDv4Ydc-8" value="" style="image;html=1;image=img/lib/clip_art/general/Gear_128x128.png;fontSize=14;" parent="1" vertex="1">
          <mxGeometry x="760" y="146" width="80" height="80" as="geometry" />
        </mxCell>
        <mxCell id="yHC2c5BrPZ0VJRaet4lD-5" value="Query and Set Status" style="edgeStyle=orthogonalEdgeStyle;rounded=0;orthogonalLoop=1;jettySize=auto;html=1;dashed=1;" parent="1" source="VCOzQ0IDnKiIIhDv4Ydc-11" target="VCOzQ0IDnKiIIhDv4Ydc-26" edge="1">
          <mxGeometry relative="1" as="geometry" />
        </mxCell>
        <mxCell id="VCOzQ0IDnKiIIhDv4Ydc-11" value="Loan IQ" style="sketch=0;outlineConnect=0;fontColor=#232F3E;gradientColor=none;fillColor=#232F3D;strokeColor=none;dashed=0;verticalLabelPosition=bottom;verticalAlign=top;align=center;html=1;fontSize=12;fontStyle=0;aspect=fixed;pointerEvents=1;shape=mxgraph.aws4.client;" parent="1" vertex="1">
          <mxGeometry x="220" y="200" width="78" height="76" as="geometry" />
        </mxCell>
        <mxCell id="VCOzQ0IDnKiIIhDv4Ydc-14" style="edgeStyle=orthogonalEdgeStyle;rounded=0;orthogonalLoop=1;jettySize=auto;html=1;exitX=0.5;exitY=1;exitDx=0;exitDy=0;fontSize=14;" parent="1" source="VCOzQ0IDnKiIIhDv4Ydc-13" target="VCOzQ0IDnKiIIhDv4Ydc-13" edge="1">
          <mxGeometry relative="1" as="geometry" />
        </mxCell>
        <mxCell id="VCOzQ0IDnKiIIhDv4Ydc-21" value="&lt;b&gt;&lt;font&gt;Open Shift/ Kubernetes Services&lt;/font&gt;&lt;/b&gt;" style="text;html=1;strokeColor=none;fillColor=none;align=center;verticalAlign=middle;whiteSpace=wrap;rounded=0;dashed=1;fontSize=14;fontColor=#000000;" parent="1" vertex="1">
          <mxGeometry x="480" y="418" width="260" height="30" as="geometry" />
        </mxCell>
        <mxCell id="VCOzQ0IDnKiIIhDv4Ydc-24" value="Kafka Cluster" style="sketch=0;points=[[0,0,0],[0.25,0,0],[0.5,0,0],[0.75,0,0],[1,0,0],[0,1,0],[0.25,1,0],[0.5,1,0],[0.75,1,0],[1,1,0],[0,0.25,0],[0,0.5,0],[0,0.75,0],[1,0.25,0],[1,0.5,0],[1,0.75,0]];outlineConnect=0;fontColor=#232F3E;gradientColor=#945DF2;gradientDirection=north;fillColor=#5A30B5;strokeColor=#ffffff;dashed=0;verticalLabelPosition=bottom;verticalAlign=top;align=center;html=1;fontSize=12;fontStyle=0;aspect=fixed;shape=mxgraph.aws4.resourceIcon;resIcon=mxgraph.aws4.managed_streaming_for_kafka;" parent="1" vertex="1">
          <mxGeometry x="960" y="75" width="78" height="78" as="geometry" />
        </mxCell>
        <mxCell id="VCOzQ0IDnKiIIhDv4Ydc-43" value="Stream Input Message" style="edgeStyle=orthogonalEdgeStyle;rounded=0;orthogonalLoop=1;jettySize=auto;html=1;dashed=1;fontSize=14;fontColor=#000000;strokeWidth=2;fillColor=#666666;" parent="1" source="VCOzQ0IDnKiIIhDv4Ydc-26" target="VCOzQ0IDnKiIIhDv4Ydc-29" edge="1">
          <mxGeometry relative="1" as="geometry" />
        </mxCell>
        <mxCell id="VCOzQ0IDnKiIIhDv4Ydc-26" value="Query New Payments from Loan IQ" style="rounded=1;whiteSpace=wrap;html=1;dashed=1;fontSize=14;fontColor=#ffffff;strokeColor=#006EAF;fillColor=#1ba1e2;" parent="1" vertex="1">
          <mxGeometry x="480" y="208" width="260" height="60" as="geometry" />
        </mxCell>
        <mxCell id="VCOzQ0IDnKiIIhDv4Ydc-35" value="Acknowledgement/Status Update" style="edgeStyle=orthogonalEdgeStyle;rounded=0;orthogonalLoop=1;jettySize=auto;html=1;entryX=0.504;entryY=0.431;entryDx=0;entryDy=0;entryPerimeter=0;dashed=1;fontSize=14;fontColor=#000000;strokeWidth=2;fillColor=#666666;" parent="1" source="VCOzQ0IDnKiIIhDv4Ydc-27" target="VCOzQ0IDnKiIIhDv4Ydc-34" edge="1">
          <mxGeometry relative="1" as="geometry">
            <Array as="points">
              <mxPoint x="260" y="345" />
            </Array>
          </mxGeometry>
        </mxCell>
        <mxCell id="VCOzQ0IDnKiIIhDv4Ydc-27" value="Update Loan IQ Table" style="rounded=1;whiteSpace=wrap;html=1;dashed=1;fontSize=14;fontColor=#ffffff;strokeColor=#006EAF;fillColor=#1ba1e2;" parent="1" vertex="1">
          <mxGeometry x="545" y="310" width="120" height="60" as="geometry" />
        </mxCell>
        <mxCell id="VCOzQ0IDnKiIIhDv4Ydc-29" value="Loan IQ Topic" style="rounded=1;whiteSpace=wrap;html=1;dashed=1;fontSize=14;fontColor=#ffffff;strokeColor=#006EAF;fillColor=#1ba1e2;" parent="1" vertex="1">
          <mxGeometry x="1020" y="220" width="120" height="60" as="geometry" />
        </mxCell>
        <mxCell id="VCOzQ0IDnKiIIhDv4Ydc-42" value="Consume and Delete Message" style="edgeStyle=orthogonalEdgeStyle;rounded=0;orthogonalLoop=1;jettySize=auto;html=1;dashed=1;fontSize=14;fontColor=#000000;strokeWidth=2;fillColor=#666666;" parent="1" source="VCOzQ0IDnKiIIhDv4Ydc-30" target="VCOzQ0IDnKiIIhDv4Ydc-27" edge="1">
          <mxGeometry relative="1" as="geometry" />
        </mxCell>
        <mxCell id="VCOzQ0IDnKiIIhDv4Ydc-30" value="Consumer - Status Notification Topic" style="rounded=1;whiteSpace=wrap;html=1;dashed=1;fontSize=14;fontColor=#ffffff;strokeColor=#006EAF;fillColor=#1ba1e2;" parent="1" vertex="1">
          <mxGeometry x="1020" y="310" width="120" height="60" as="geometry" />
        </mxCell>
        <mxCell id="VCOzQ0IDnKiIIhDv4Ydc-32" value="Aurius" style="aspect=fixed;perimeter=ellipsePerimeter;html=1;align=center;shadow=0;dashed=0;spacingTop=3;image;image=img/lib/active_directory/database_server.svg;fontSize=14;fontColor=#000000;strokeColor=#000000;fillColor=none;" parent="1" vertex="1">
          <mxGeometry x="1240" y="226" width="101.68" height="124" as="geometry" />
        </mxCell>
        <mxCell id="VCOzQ0IDnKiIIhDv4Ydc-37" value="NO SQL" style="aspect=fixed;html=1;points=[];align=center;image;fontSize=12;image=img/lib/azure2/databases/SSIS_Lift_And_Shift_IR.svg;rounded=1;glass=1;dashed=1;dashPattern=1 4;sketch=1;fontColor=#000000;strokeColor=#000000;strokeWidth=2;fillColor=none;" parent="1" vertex="1">
          <mxGeometry x="570" y="472" width="62" height="68" as="geometry" />
        </mxCell>
        <mxCell id="VCOzQ0IDnKiIIhDv4Ydc-38" value="" style="endArrow=classic;html=1;rounded=0;fontSize=14;strokeColor=none;shape=flexArrow;fillColor=#666666;entryX=0.156;entryY=-0.067;entryDx=0;entryDy=0;entryPerimeter=0;" parent="1" target="VCOzQ0IDnKiIIhDv4Ydc-2" edge="1">
          <mxGeometry width="50" height="50" relative="1" as="geometry">
            <mxPoint x="720" y="450" as="sourcePoint" />
            <mxPoint x="720" y="470" as="targetPoint" />
          </mxGeometry>
        </mxCell>
        <mxCell id="VCOzQ0IDnKiIIhDv4Ydc-40" value="" style="endArrow=classic;html=1;rounded=0;fontSize=14;strokeColor=none;shape=flexArrow;fillColor=#666666;entryX=0.156;entryY=-0.067;entryDx=0;entryDy=0;entryPerimeter=0;" parent="1" edge="1">
          <mxGeometry width="50" height="50" relative="1" as="geometry">
            <mxPoint x="790.04" y="448" as="sourcePoint" />
            <mxPoint x="790" y="493.98" as="targetPoint" />
          </mxGeometry>
        </mxCell>
        <mxCell id="VCOzQ0IDnKiIIhDv4Ydc-41" value="" style="endArrow=classic;html=1;rounded=0;fontSize=14;strokeColor=none;shape=flexArrow;fillColor=#666666;entryX=0.156;entryY=-0.067;entryDx=0;entryDy=0;entryPerimeter=0;" parent="1" edge="1">
          <mxGeometry width="50" height="50" relative="1" as="geometry">
            <mxPoint x="475.03999999999996" y="448" as="sourcePoint" />
            <mxPoint x="475" y="493.98" as="targetPoint" />
          </mxGeometry>
        </mxCell>
        <mxCell id="VCOzQ0IDnKiIIhDv4Ydc-45" value="UK Branch" style="text;html=1;strokeColor=none;fillColor=none;align=center;verticalAlign=middle;whiteSpace=wrap;rounded=0;glass=1;dashed=1;dashPattern=1 4;sketch=1;fontSize=16;fontColor=#000000;fontStyle=1" parent="1" vertex="1">
          <mxGeometry x="1050" y="491" width="110" height="30" as="geometry" />
        </mxCell>
        <mxCell id="VCOzQ0IDnKiIIhDv4Ydc-47" value="Loan IQ" style="text;html=1;strokeColor=none;fillColor=none;align=center;verticalAlign=middle;whiteSpace=wrap;rounded=0;glass=1;dashed=1;dashPattern=1 4;sketch=1;fontSize=16;fontColor=#000000;fontStyle=1" parent="1" vertex="1">
          <mxGeometry x="204" y="461" width="110" height="30" as="geometry" />
        </mxCell>
        <mxCell id="y_HDMWCJWSB0qehqekKJ-5" value="LOAN IQ and UK Branch Integration" style="text;strokeColor=none;fillColor=none;html=1;fontSize=24;fontStyle=1;verticalAlign=middle;align=center;" vertex="1" parent="1">
          <mxGeometry x="70" y="42" width="530" height="40" as="geometry" />
        </mxCell>
      </root>
    </mxGraphModel>
  </diagram>
</mxfile>
